<svg xmlns="http://www.w3.org/2000/svg" aria-hidden="true" style="position:absolute;width:0;height:0;overflow:hidden">
    <defs>
        <symbol id="icon-burger" viewBox="0 0 46 32">
            <path fill="none" stroke="#5D5FEF" stroke-linecap="round" stroke-width="3.429" d="M8.671 5.074H44M8.671 24.468H44M19.602 14.771H44" />
        </symbol>
        <symbol id="icon-account" viewBox="0 0 32 32">
            <path d="M20.858 16.93c1.284-1.010 2.221-2.395 2.681-3.963s0.42-3.239-0.114-4.783c-0.534-1.544-1.537-2.882-2.867-3.83s-2.924-1.457-4.557-1.457c-1.634 0-3.226 0.509-4.557 1.457s-2.333 2.286-2.867 3.83c-0.534 1.544-0.575 3.216-0.115 4.783s1.397 2.953 2.681 3.963c-2.2 0.881-4.119 2.343-5.554 4.23s-2.33 4.127-2.591 6.482c-0.019 0.172-0.004 0.346 0.045 0.512s0.129 0.321 0.237 0.456c0.219 0.273 0.536 0.447 0.884 0.485s0.696-0.063 0.968-0.282c0.273-0.218 0.447-0.536 0.485-0.884 0.288-2.56 1.508-4.924 3.429-6.641s4.406-2.666 6.982-2.666c2.576 0 5.062 0.949 6.982 2.666s3.141 4.081 3.429 6.641c0.036 0.322 0.189 0.619 0.431 0.834s0.555 0.333 0.879 0.331h0.144c0.343-0.040 0.657-0.213 0.873-0.483s0.316-0.614 0.279-0.957c-0.262-2.362-1.163-4.608-2.605-6.498s-3.37-3.351-5.58-4.227zM16 16c-1.036 0-2.049-0.307-2.91-0.883s-1.533-1.394-1.929-2.351c-0.396-0.957-0.5-2.010-0.298-3.026s0.701-1.949 1.434-2.682c0.733-0.733 1.666-1.231 2.682-1.434s2.069-0.098 3.026 0.298c0.957 0.396 1.775 1.068 2.351 1.929s0.883 1.874 0.883 2.91c0 1.389-0.552 2.722-1.534 3.704s-2.315 1.534-3.704 1.534z"></path>
        </symbol>
        <symbol id="icon-close" viewBox="0 0 32 32">
            <path fill="#5D5FEF" d="M20.946 11.053c-0.124-0.125-0.271-0.224-0.434-0.292s-0.337-0.103-0.513-0.103-0.35 0.035-0.513 0.103c-0.163 0.068-0.31 0.167-0.434 0.292l-3.053 3.067-3.053-3.067c-0.251-0.251-0.592-0.392-0.947-0.392s-0.696 0.141-0.947 0.392c-0.251 0.251-0.392 0.592-0.392 0.947s0.141 0.696 0.392 0.947l3.067 3.053-3.067 3.053c-0.125 0.124-0.224 0.271-0.292 0.434s-0.103 0.337-0.103 0.513 0.035 0.35 0.103 0.513c0.068 0.162 0.167 0.31 0.292 0.434s0.271 0.224 0.434 0.292 0.337 0.103 0.513 0.103c0.176 0 0.35-0.035 0.513-0.103s0.31-0.167 0.434-0.292l3.053-3.067 3.053 3.067c0.124 0.125 0.271 0.224 0.434 0.292s0.337 0.103 0.513 0.103 0.35-0.035 0.513-0.103c0.163-0.068 0.31-0.167 0.434-0.292 0.125-0.124 0.224-0.271 0.292-0.434s0.103-0.337 0.103-0.513-0.035-0.35-0.103-0.513c-0.068-0.162-0.167-0.31-0.292-0.434l-3.067-3.053 3.067-3.053c0.125-0.124 0.224-0.271 0.292-0.434s0.103-0.337 0.103-0.513-0.035-0.35-0.103-0.513c-0.068-0.162-0.167-0.31-0.292-0.434zM25.426 6.573c-1.23-1.273-2.701-2.289-4.328-2.988s-3.376-1.067-5.147-1.082c-1.77-0.015-3.526 0.322-5.165 0.992s-3.127 1.66-4.379 2.912c-1.252 1.252-2.242 2.741-2.912 4.379s-1.008 3.394-0.992 5.165c0.015 1.77 0.383 3.52 1.082 5.147s1.715 3.098 2.988 4.328c1.23 1.273 2.701 2.289 4.328 2.988s3.376 1.067 5.147 1.082c1.77 0.015 3.526-0.322 5.165-0.992s3.127-1.66 4.379-2.912c1.252-1.252 2.242-2.741 2.912-4.379s1.008-3.394 0.992-5.165c-0.015-1.77-0.383-3.52-1.082-5.147s-1.715-3.098-2.988-4.328zM23.546 23.547c-1.744 1.746-4.039 2.833-6.495 3.076s-4.92-0.372-6.972-1.742-3.567-3.409-4.285-5.77c-0.718-2.361-0.595-4.898 0.348-7.178s2.647-4.164 4.823-5.328 4.688-1.539 7.108-1.060c2.421 0.48 4.6 1.784 6.167 3.69s2.424 4.297 2.426 6.765c0.005 1.402-0.269 2.79-0.804 4.086s-1.323 2.472-2.316 3.461z"></path>
        </symbol>
        <symbol id="icon-error" viewBox="0 0 32 32">
            <path fill="#FF0000" d="M16 21.333c-0.264 0-0.521 0.078-0.741 0.225s-0.39 0.355-0.491 0.598c-0.101 0.244-0.127 0.512-0.076 0.77s0.178 0.496 0.365 0.683c0.187 0.186 0.424 0.313 0.683 0.365s0.527 0.025 0.77-0.076 0.452-0.272 0.598-0.491c0.146-0.219 0.225-0.477 0.225-0.741 0-0.354-0.14-0.693-0.39-0.943s-0.589-0.39-0.943-0.39zM30.227 23.293l-10.733-18.667c-0.347-0.622-0.854-1.14-1.468-1.501s-1.313-0.551-2.026-0.551c-0.712 0-1.411 0.19-2.026 0.551s-1.121 0.879-1.468 1.501l-10.667 18.667c-0.359 0.605-0.552 1.295-0.559 1.998s0.171 1.397 0.517 2.010c0.346 0.613 0.848 1.123 1.455 1.48s1.297 0.547 2 0.552h21.493c0.709 0.007 1.408-0.175 2.024-0.527s1.127-0.861 1.481-1.476c0.354-0.615 0.538-1.313 0.534-2.022s-0.198-1.405-0.559-2.015zM27.92 25.96c-0.117 0.208-0.287 0.381-0.494 0.5s-0.441 0.182-0.68 0.18h-21.493c-0.239 0.002-0.473-0.060-0.68-0.18s-0.377-0.292-0.494-0.5c-0.117-0.203-0.179-0.433-0.179-0.667s0.062-0.464 0.179-0.667l10.667-18.667c0.112-0.218 0.282-0.402 0.491-0.53s0.45-0.196 0.695-0.196 0.486 0.068 0.695 0.196c0.209 0.128 0.379 0.311 0.491 0.53l10.733 18.667c0.132 0.2 0.208 0.432 0.22 0.671s-0.041 0.477-0.153 0.689v-0.027zM16 10.667c-0.354 0-0.693 0.14-0.943 0.39s-0.39 0.589-0.39 0.943v5.333c0 0.354 0.14 0.693 0.39 0.943s0.589 0.39 0.943 0.39c0.354 0 0.693-0.14 0.943-0.39s0.39-0.589 0.39-0.943v-5.333c0-0.354-0.14-0.693-0.39-0.943s-0.589-0.39-0.943-0.39z"></path>
        </symbol>
    </defs>
</svg>

