<svg xmlns="http://www.w3.org/2000/svg" aria-hidden="true" style="position:absolute;width:0;height:0;overflow:hidden">
    <defs>
        <symbol id="icon-burger" viewBox="0 0 46 32">
            <path fill="none" stroke="#5D5FEF" stroke-linecap="round" stroke-width="3.429" d="M8.671 5.074H44M8.671 24.468H44M19.602 14.771H44" />
        </symbol>
        <symbol id="icon-account" viewBox="0 0 32 32">
            <path  d="M20.858 16.93c1.284-1.010 2.221-2.395 2.681-3.963s0.42-3.239-0.114-4.783c-0.534-1.544-1.537-2.882-2.867-3.83s-2.924-1.457-4.557-1.457c-1.634 0-3.226 0.509-4.557 1.457s-2.333 2.286-2.867 3.83c-0.534 1.544-0.575 3.216-0.115 4.783s1.397 2.953 2.681 3.963c-2.2 0.881-4.119 2.343-5.554 4.23s-2.33 4.127-2.591 6.482c-0.019 0.172-0.004 0.346 0.045 0.512s0.129 0.321 0.237 0.456c0.219 0.273 0.536 0.447 0.884 0.485s0.696-0.063 0.968-0.282c0.273-0.218 0.447-0.536 0.485-0.884 0.288-2.56 1.508-4.924 3.429-6.641s4.406-2.666 6.982-2.666c2.576 0 5.062 0.949 6.982 2.666s3.141 4.081 3.429 6.641c0.036 0.322 0.189 0.619 0.431 0.834s0.555 0.333 0.879 0.331h0.144c0.343-0.040 0.657-0.213 0.873-0.483s0.316-0.614 0.279-0.957c-0.262-2.362-1.163-4.608-2.605-6.498s-3.37-3.351-5.58-4.227zM16 16c-1.036 0-2.049-0.307-2.91-0.883s-1.533-1.394-1.929-2.351c-0.396-0.957-0.5-2.010-0.298-3.026s0.701-1.949 1.434-2.682c0.733-0.733 1.666-1.231 2.682-1.434s2.069-0.098 3.026 0.298c0.957 0.396 1.775 1.068 2.351 1.929s0.883 1.874 0.883 2.91c0 1.389-0.552 2.722-1.534 3.704s-2.315 1.534-3.704 1.534z"></path>
        </symbol>
    </defs>
</svg>

